<svg xmlns="http://www.w3.org/2000/svg" viewBox="0 0 107.99 61.02"><defs><style>.cls-1{fill:#ff7700;}.cls-2{fill:#86898d;}</style></defs><title>Logo_Orange_Mittig</title><g id="Ebene_2" data-name="Ebene 2"><g id="Ebene_1-2" data-name="Ebene 1"><path class="cls-1" d="M66.34,11a12.16,12.16,0,0,0-.62-2.26,13.1,13.1,0,0,0-2.31-4,13.37,13.37,0,0,0-1.64-1.64,13.1,13.1,0,0,0-4-2.31A13.21,13.21,0,0,0,55.51.2,13.71,13.71,0,0,0,53.19,0V1a12.5,12.5,0,0,0-2.13.18A13,13,0,0,0,49,1.77,11.13,11.13,0,0,0,47,2.69a11.48,11.48,0,0,0-1.76,1.22,12.84,12.84,0,0,0-1.52,1.52l.85.71,1.7,1.42.77.65,2.46,2.06a4,4,0,0,1,.59-.58L48.06,7.22l-.65-.76a8.77,8.77,0,0,1,1.29-.9L47.6,3.64a10.42,10.42,0,0,1,1.76-.82l.76,2.08.34.93,1.1,3a5.31,5.31,0,0,1,1.63-.29V4.36a8,8,0,0,1,1.56.14l-.17,1L54,8.65a4.28,4.28,0,0,1,.8.21l-.61,1.67L53.69,12a.51.51,0,0,1,.22.11.52.52,0,0,1,.2.14l1-1.2,1.14-1.35,2.06-2.47L59,6.46l1.42-1.69.72-.86a15.37,15.37,0,0,1,1.51,1.51,13,13,0,0,1,1.23,1.77l-1,.56a10.07,10.07,0,0,1,.82,1.76l-2.08.75-.93.35-3,1.1L56,12.32a2.17,2.17,0,0,1,.13.5l1.75-.31a4.58,4.58,0,0,1,.08.83h6.43a10.29,10.29,0,0,0-.18-1.94l1.1-.2a12.53,12.53,0,0,1,.18,2.14h1.05A13.62,13.62,0,0,0,66.34,11Z"/><path class="cls-1" d="M62,14.9l-1-.17-3.18-.57a3.22,3.22,0,0,1-.21.81l3,1.1.93.34a9,9,0,0,1-1.56,2.71l-.76-.65-2.47-2.06-1.35-1.14a3.23,3.23,0,0,1-.37.37,2.2,2.2,0,0,1-.43.3,3.38,3.38,0,0,1-.47.22,2.72,2.72,0,0,1-.51.13l-.27-1.52-.25,0-.25,0a1,1,0,0,1-.24-.07l-.54,1.46-.6,1.66-1.1,3-.34.94a8,8,0,0,1-1.42-.67,9.53,9.53,0,0,1-1.29-.89,8.87,8.87,0,0,1-1.1-1.11L44.6,20.54A13,13,0,0,0,46,21.93,11.12,11.12,0,0,0,47.59,23a10.21,10.21,0,0,0,1.77.83,10.09,10.09,0,0,0,1.89.49l-.19,1.1A12,12,0,0,1,49,24.91a12.32,12.32,0,0,1-3.69-2.14,11.06,11.06,0,0,1-1.53-1.53,12,12,0,0,1-1.23-1.75l1-.55,1.92-1.11.87-.5a6.49,6.49,0,0,0,.8,1.14l2.45-2.06a4,4,0,0,1-.47-.69,3.42,3.42,0,0,1-.35-.75,4.3,4.3,0,0,1-.22-.8,4.49,4.49,0,0,1-.08-.83,4.58,4.58,0,0,1,.08-.83l1.75.31a2.72,2.72,0,0,1,.13-.51,3.38,3.38,0,0,1,.22-.47L49.06,11a4,4,0,0,0-.35.76l-3-1.1-.93-.35L42.66,9.5a10,10,0,0,0-.49,1.9l2.18.38,1,.17a9,9,0,0,0-.11,1.39H42a9.59,9.59,0,0,0,.18,1.94l-1.1.19a12.09,12.09,0,0,1,0-4.27,11.89,11.89,0,0,1,.55-2.07,12.75,12.75,0,0,1,.91-1.94l-.82-.48-.08,0a13.72,13.72,0,0,0-1,2.09A11.41,11.41,0,0,0,40.05,11a12.92,12.92,0,0,0,0,4.64,11.92,11.92,0,0,0,.6,2.24,12.68,12.68,0,0,0,1,2.11A13.55,13.55,0,0,0,43,21.92a16.06,16.06,0,0,0,1.65,1.65,14.15,14.15,0,0,0,1.91,1.33,12.68,12.68,0,0,0,2.11,1,12.13,12.13,0,0,0,2.24.6,12.92,12.92,0,0,0,4.64,0,12.23,12.23,0,0,0,2.25-.6,13.48,13.48,0,0,0,2.11-1,13.09,13.09,0,0,0,3.54-3l-.06-.05-.73-.62a12.84,12.84,0,0,1-1.52,1.52l-.71-.85a12,12,0,0,0,1.38-1.38,10.53,10.53,0,0,0,1.12-1.61l1,.56a11.86,11.86,0,0,0,.91-1.94,13,13,0,0,0,.55-2.08l-1.1-.19Zm-8.84,7.43a8,8,0,0,0,1.56-.15l-.17-1L54,18a4.1,4.1,0,0,0,.8-.22l1.1,3,.35.94L57,23.87a10.09,10.09,0,0,1-1.89.49,9.53,9.53,0,0,1-1.94.18Z"/><path class="cls-2" d="M10.11,48.29v2.34H6.53V61H3.58V50.63H0V48.29Z"/><path class="cls-2" d="M14.85,61h-3V48.29h3Z"/><path class="cls-2" d="M23.63,55.89c.1.24.21.48.31.74.1-.26.2-.51.31-.75s.22-.48.34-.71l3.27-6.43a1.17,1.17,0,0,1,.18-.26.63.63,0,0,1,.2-.13.71.71,0,0,1,.26-.05h2.59V61h-2.6V53.7c0-.35,0-.74.05-1.15l-3.37,6.54a1.13,1.13,0,0,1-.43.46,1.1,1.1,0,0,1-.6.16h-.4a1.14,1.14,0,0,1-1-.62l-3.38-6.55c0,.2,0,.4.05.61s0,.38,0,.55V61H16.78V48.3h2.59a.71.71,0,0,1,.26.05.67.67,0,0,1,.21.13.9.9,0,0,1,.17.26l3.28,6.46C23.41,55.42,23.52,55.65,23.63,55.89Z"/><path class="cls-2" d="M41.2,48.29v2.27H36v3h4v2.19H36v3H41.2V61H33V48.29Z"/><path class="cls-2" d="M52.87,48.29v2.34H49.28V61h-3V50.63H42.75V48.29Z"/><path class="cls-2" d="M57.38,56.31V61h-3V48.29h4.13a8.5,8.5,0,0,1,2.36.29,4.39,4.39,0,0,1,1.59.79,2.92,2.92,0,0,1,.89,1.19,3.9,3.9,0,0,1,.28,1.51,4.08,4.08,0,0,1-.16,1.17,3.81,3.81,0,0,1-1.3,1.85,4.45,4.45,0,0,1-1.1.6,2.59,2.59,0,0,1,.56.37,2.14,2.14,0,0,1,.45.53L64.84,61H62.16a1.13,1.13,0,0,1-1.06-.56L59,56.77a.85.85,0,0,0-.32-.35,1.1,1.1,0,0,0-.53-.11Zm0-2h1.18a2.82,2.82,0,0,0,1-.16,1.87,1.87,0,0,0,.7-.42,1.59,1.59,0,0,0,.39-.63,2.52,2.52,0,0,0,.12-.79,1.61,1.61,0,0,0-.55-1.3,2.49,2.49,0,0,0-1.69-.48H57.38Z"/><path class="cls-2" d="M78.27,61H76a1,1,0,0,1-.63-.18.88.88,0,0,1-.35-.46l-.75-2.22H69.41l-.75,2.22a1,1,0,0,1-1,.64H65.39l4.93-12.73h3Zm-8.18-4.87h3.48L72.4,52.67q-.12-.33-.27-.78c-.1-.3-.2-.63-.3-1-.09.36-.19.69-.29,1s-.19.57-.28.79Z"/><path class="cls-2" d="M76.49,48.29h2.37a1,1,0,0,1,.63.18.94.94,0,0,1,.35.46l2.47,6.81c.11.3.22.62.33,1s.22.72.32,1.1c.08-.38.18-.75.28-1.1s.22-.67.32-1L86,48.93a1,1,0,0,1,.34-.44,1,1,0,0,1,.62-.2h2.39L84.26,61H81.59Z"/><path class="cls-2" d="M98.55,48.29v2.27H93.33v3h4v2.19h-4v3h5.22V61H90.36V48.29Z"/><path class="cls-2" d="M103.28,58.66H108V61h-7.66V48.29h3Z"/><path class="cls-2" d="M8,39.7a1.7,1.7,0,0,0,.61-.11A1.23,1.23,0,0,0,9,39.27a1.37,1.37,0,0,0,.29-.5,2.17,2.17,0,0,0,.09-.65V34.33h1.18v3.79a3,3,0,0,1-.18,1,2.39,2.39,0,0,1-.52.82,2.48,2.48,0,0,1-.83.54,2.9,2.9,0,0,1-1.09.2,2.86,2.86,0,0,1-1.09-.2,2.3,2.3,0,0,1-1.35-1.36,3,3,0,0,1-.18-1V34.33H6.51v3.78a2,2,0,0,0,.1.66,1.3,1.3,0,0,0,.28.5,1.36,1.36,0,0,0,.45.32A1.66,1.66,0,0,0,8,39.7Z"/><path class="cls-2" d="M30.12,38.18v2.47H28.94V34.33h1.93a4,4,0,0,1,1.11.14,2.11,2.11,0,0,1,.75.37,1.51,1.51,0,0,1,.44.57,2.11,2.11,0,0,1,0,1.34,1.72,1.72,0,0,1-.27.52,1.88,1.88,0,0,1-.44.4,2.15,2.15,0,0,1-.59.28,1.12,1.12,0,0,1,.38.37l1.59,2.33H32.82a.53.53,0,0,1-.26-.06.52.52,0,0,1-.18-.18l-1.33-2a.41.41,0,0,0-.16-.16.62.62,0,0,0-.27,0Zm0-.84h.73a1.68,1.68,0,0,0,.58-.09,1.14,1.14,0,0,0,.41-.22,1.21,1.21,0,0,0,.24-.35,1.27,1.27,0,0,0,.07-.44.9.9,0,0,0-.31-.74,1.54,1.54,0,0,0-1-.26h-.75Z"/><path class="cls-2" d="M51.69,40.65V34.33h2.18a4.07,4.07,0,0,1,1.06.12,2,2,0,0,1,.72.34,1.25,1.25,0,0,1,.41.53,1.71,1.71,0,0,1,.13.7,1.47,1.47,0,0,1-.06.42,1.19,1.19,0,0,1-.21.38,1.3,1.3,0,0,1-.34.32,2.2,2.2,0,0,1-.51.25c.87.19,1.3.66,1.3,1.4a1.78,1.78,0,0,1-.15.74,1.53,1.53,0,0,1-.45.59,1.91,1.91,0,0,1-.72.39,3.22,3.22,0,0,1-1,.14Zm1.18-3.58h.93a1.6,1.6,0,0,0,.91-.22.79.79,0,0,0,.31-.7.82.82,0,0,0-.28-.7,1.43,1.43,0,0,0-.87-.21h-1Zm0,.81v1.85h1.19a1.49,1.49,0,0,0,.55-.08.93.93,0,0,0,.35-.21.73.73,0,0,0,.19-.3,1.15,1.15,0,0,0,.06-.37.87.87,0,0,0-.07-.37.63.63,0,0,0-.2-.28.87.87,0,0,0-.36-.18,2,2,0,0,0-.53-.06Z"/><path class="cls-2" d="M79.92,40.65H79a.41.41,0,0,1-.25-.08.45.45,0,0,1-.14-.19l-.47-1.29H75.53l-.47,1.29a.41.41,0,0,1-.14.19.39.39,0,0,1-.25.08h-.91l2.48-6.32h1.2Zm-4.09-2.39h2l-.77-2.1c0-.09-.07-.2-.12-.33s-.08-.26-.12-.41q-.06.22-.12.42c0,.12-.08.24-.12.33Z"/><path class="cls-2" d="M98.43,34.34a.17.17,0,0,1,.1,0l.08.05.08.1L102,38.74l0-.29V34.33h1v6.32h-.6a.57.57,0,0,1-.24,0,.39.39,0,0,1-.17-.15l-3.31-4.21c0,.1,0,.19,0,.28a2.18,2.18,0,0,1,0,.25v3.88h-1V34.33h.75Z"/></g></g></svg>